<svg width="394" height="405" viewBox="0 0 394 405" fill="none" xmlns="http://www.w3.org/2000/svg">
<path d="M161.579 16.5513C179.822 -5.51674 213.649 -5.51674 231.892 16.5513V16.5513C243.191 30.2197 261.388 36.1001 278.549 31.6286L279.499 31.3811C306.918 24.2368 334.015 43.9752 335.624 72.2643V72.2643C336.626 89.9007 348.088 105.388 364.583 111.707V111.707C391.053 121.846 401.806 153.974 386.315 177.711V177.711C376.672 192.485 376.672 211.562 386.315 226.336V226.336C401.806 250.073 391.053 282.201 364.583 292.34V292.34C348.088 298.659 336.626 314.146 335.624 331.783V331.783C334.015 360.072 306.918 379.81 279.499 372.666L278.549 372.418C261.388 367.947 243.191 373.827 231.892 387.496V387.496C213.649 409.564 179.822 409.564 161.579 387.496V387.496C150.28 373.827 132.083 367.947 114.922 372.418L113.972 372.666C86.5527 379.81 59.4555 360.072 57.8471 331.783V331.783C56.8444 314.146 45.3832 298.659 28.8873 292.34V292.34C2.41817 282.201 -8.33557 250.073 7.15597 226.336V226.336C16.7983 211.562 16.7983 192.485 7.15596 177.711V177.711C-8.33557 153.974 2.41817 121.846 28.8873 111.707V111.707C45.3832 105.388 56.8444 89.9007 57.8471 72.2643V72.2643C59.4555 43.9752 86.5527 24.2368 113.972 31.3811L114.922 31.6286C132.083 36.1001 150.28 30.2197 161.579 16.5513V16.5513Z" fill="#F83203"/>
</svg>
